<svg xmlns="http://www.w3.org/2000/svg" viewBox="0 0 59.39 51.69"><defs><style>.cls-1{fill:#fff;}.cls-2{fill:#44978d;}.cls-3{fill:#d46d4f;}</style></defs><g id="图层_2" data-name="图层 2"><g id="图层_1-2" data-name="图层 1"><path class="cls-1" d="M27.69,16.41H.36L14,0Zm-25.2-1H25.56L14,1.56Z"/><path class="cls-1" d="M41.75,16.61,27.94,2.8H55.56ZM30.35,3.8l11.4,11.4L53.14,3.8Z"/><path class="cls-1" d="M22.93,51.69H5.13V35.62h17.8Zm-16.8-1h15.8V36.62H6.13Z"/><polygon class="cls-2" points="49.31 31.02 54.35 20.94 29.15 20.94 49.31 31.02"/><path class="cls-1" d="M42.25,51.69H30.92l10.53-25,.8.19V51.69Zm-9.83-1h8.83v-21Z"/><circle class="cls-3" cx="55.61" cy="47.41" r="3.78"/><path class="cls-1" d="M14.53,37.11,0,25.48H13.53V15.62l.64-.28.25.25c.45.44,7.73,6.23,12.52,10l1.13.89H14.53ZM2.85,26.48,13.53,35V26.48Zm11.68-1H25.19c-2.58-2-8.47-6.69-10.66-8.5Z"/></g></g></svg>